<?xml version="1.0" encoding="utf-8"?>
<!-- Generator: Adobe Illustrator 24.1.2, SVG Export Plug-In . SVG Version: 6.00 Build 0)  -->
<svg version="1.1" id="Layer_1" xmlns="http://www.w3.org/2000/svg" xmlns:xlink="http://www.w3.org/1999/xlink" x="0px" y="0px"
	 viewBox="0 0 79.4 79.4" style="enable-background:new 0 0 79.4 79.4;" xml:space="preserve">
<style type="text/css">
	.st0{fill:#018B8B;}
</style>
<path class="st0" d="M30.1,62.2c-3,0.6-5-0.7-5.7-3.5c-2.9-0.1-4.1-1.2-4.7-4.3c-1.9-0.3-3.5-1.3-3.7-3.3c-0.2-1.6-1.1-2.4-2-3.3
	c-0.6-0.7-1.3-1.3-2-2.1c-0.8,1.3-1.6,2.5-2.3,3.7C9.4,49.3,9.2,49.2,9,49c-2.7-1.6-5.5-3.2-8.2-4.8c-0.5-0.3-0.7-0.6-0.7-1.2
	c0.1-0.7,0-1.5,0-2.4l8.6,5l11.4-18.3c-1.3-1-2.6-2-3.9-3c-5.2-4-10.4-8-15.6-12.1c-0.3-0.3-0.5-0.7-0.6-1.1c-0.1-0.9,0-1.7,0-2.8
	l23.7,18.3l-0.5,0.9c1.2,0.6,2.2,1.2,3.7,0.6c2.1-0.8,4.3-1.4,6.4-2.2c1.6-0.6,3.2-0.6,4.6,0.4c1.6,1.1,3,1.1,4.6,0
	c1.4-1,3.1-1,4.7-0.4c2.2,0.8,4.4,1.4,6.5,2.2c1.4,0.5,2.3-0.2,3.5-0.7l-0.5-1l23-17.3c0,1.2,0.1,2.2,0,3.2c0,0.3-0.4,0.6-0.7,0.8
	c-5.9,4.6-11.7,9.1-17.6,13.6c-0.2,0.2-0.4,0.4-0.7,0.6l11.4,18.3l7.6-4.5c0,1.1,0,2,0,2.8c0,0.2-0.2,0.5-0.4,0.6
	c-2.7,1.6-5.4,3.2-8.1,4.8l-1.9-2.9c-1,1-1.9,1.9-2.9,2.9c-0.1,0.2-0.2,0.3-0.1,0.5c0.2,3-1.6,5-4.6,5.1c-0.1,0-0.1,0-0.2,0
	c-1.1,3.1-2.3,4-5.3,4c-0.9,3-3,3.9-5.2,3.8c-0.5,1.9-1.6,3.3-3.6,3.7c-1.4,0.3-2.6-0.1-3.7-0.9c-1.5-1.2-2.9-2.3-4.5-3.5l-1.9,1.8
	c-2.4,2.2-5.7,1.6-7.1-1.4C30.2,62.4,30.2,62.3,30.1,62.2z M21.8,30c-0.2,0.3-0.3,0.4-0.4,0.6c-2.6,4.2-5.3,8.4-7.8,12.5l3.7,3.7
	c0.5-0.4,1.1-1,1.6-1.5c2.7-2.5,6-1.8,7.4,1.6l0.1,0.1c2.4-0.4,4,0.5,5.1,2.6c4.2-1.7,7.1,1.8,6.3,5.1c2,0.8,3,2.3,2.9,4.5
	c0,0.2,0.1,0.4,0.2,0.5c1.6,1.3,3.2,2.6,4.8,3.8c0.7,0.5,1.5,0.3,2.1-0.4s0.6-1.5,0.1-2.1c-0.2-0.3-0.5-0.5-0.8-0.7
	c-2.3-1.8-4.5-3.6-6.8-5.4l1.7-2.2c0.3,0.3,0.6,0.5,0.9,0.7c2.5,2,5.1,4,7.6,6c0.9,0.7,1.9,0.7,2.5-0.1c0.7-0.8,0.5-1.8-0.4-2.6
	s-1.9-1.5-2.8-2.2l-7-5.6l1.7-2.1c0.2,0.2,0.4,0.3,0.6,0.5c3.5,2.8,7,5.5,10.5,8.3c1,0.8,2,0.8,2.7-0.1c0.7-0.9,0.5-1.8-0.5-2.6
	l-8.5-6.7c-0.7-0.6-1.4-1.1-2.2-1.7l1.7-2.2l4.8,3.8c2.4,1.9,4.7,3.7,7.1,5.6c1,0.8,2.1,0.6,2.7-0.5c0.4-0.8,0.2-1.6-0.7-2.3
	c-5.1-4-10.2-8-15.3-12c-0.4-0.2-0.8-0.4-1.2-0.3c-3.3,0.6-6.6,1.2-9.9,1.8c-2.5,0.5-4.9-0.6-5.9-2.8c-0.4-0.8-0.6-1.7-1-2.5l7.8-4
	c-1-0.8-1.9-0.9-3.1-0.5c-2.3,0.8-4.6,1.5-6.9,2.3c-1.1,0.4-2.4,0.4-3.5-0.2C23.2,30.6,22.5,30.3,21.8,30z M32.9,34.6
	c0.8,1.2,1.8,1.4,3.1,1.2c3.6-0.7,7.2-1.3,10.8-2c0.6-0.1,1,0,1.5,0.3c3.9,3.1,7.8,6.2,11.8,9.3c1.6,1.2,3.1,2.4,4.6,3.6l3.1-3.1
	C64.9,39.4,62,34.7,59,30c-0.6,0.2-1.1,0.4-1.6,0.7c-1.5,0.8-2.9,0.8-4.4,0.2c-2.2-0.8-4.5-1.6-6.7-2.3c-0.5-0.2-1.3-0.2-1.7,0
	C40.7,30.6,36.8,32.6,32.9,34.6z M35.4,53.5c-0.4-0.5-0.7-1-1.1-1.3c-0.6-0.4-1.2-0.2-1.7,0.2c-1.6,1.5-3.3,3-4.9,4.5
	c-0.7,0.6-0.7,1.6-0.1,2.2c0.6,0.6,1.5,0.7,2.2,0c1.6-1.5,3.2-2.9,4.8-4.4C34.9,54.5,35,54,35.4,53.5L35.4,53.5z M23.9,56.2
	c0.5-0.2,0.8-0.3,1.1-0.5c1.2-1.1,2.5-2.2,3.7-3.4c0.6-0.6,0.5-1.5,0-2c-0.5-0.6-1.4-0.7-2-0.2c-1.3,1.1-2.5,2.2-3.7,3.4
	c-0.3,0.3-0.4,1.2-0.2,1.6C22.9,55.6,23.5,55.8,23.9,56.2L23.9,56.2z M38.2,58.8c-0.4-0.5-0.6-1-1.1-1.3c-0.5-0.4-1.2-0.2-1.7,0.2
	c-0.7,0.6-1.4,1.3-2.1,1.9c-0.7,0.7-0.8,1.6-0.2,2.2s1.5,0.7,2.2,0c0.7-0.6,1.4-1.2,2-1.9C37.7,59.8,37.8,59.4,38.2,58.8z
	 M23.9,48.1c-0.4-0.5-0.6-1.1-1.1-1.2c-0.6-0.2-1.2-0.1-1.7,0.2c-0.8,0.5-1.4,1.2-2.1,1.9s-0.8,1.6-0.2,2.2s1.5,0.7,2.2,0
	c0.7-0.6,1.4-1.2,2-1.9C23.5,49.1,23.6,48.7,23.9,48.1L23.9,48.1z"/>
</svg>
