<?xml version="1.0" encoding="utf-8"?>
<!-- Generator: Adobe Illustrator 24.1.2, SVG Export Plug-In . SVG Version: 6.00 Build 0)  -->
<svg version="1.1" id="Layer_1" xmlns="http://www.w3.org/2000/svg" xmlns:xlink="http://www.w3.org/1999/xlink" x="0px" y="0px"
	 viewBox="0 0 79.4 79.4" style="enable-background:new 0 0 79.4 79.4;" xml:space="preserve">
<style type="text/css">
	.st0{fill:#018B8B;}
</style>
<path class="st0" d="M20.7,73.1c0.2,0.8,0.4,1.5,0.7,2.3h-1.1c-2.2,0-4.4,0-6.5,0c-2.5,0-4.2-1.5-4.2-3.6c0-22.1,0-44.3,0-66.4
	c0-2.1,1.7-3.6,4.1-3.6c10.6,0,21.2,0,31.8,0c0.5,0,1,0.2,1.4,0.5C53.3,7.4,59.7,12.5,66,17.7c0.3,0.3,0.6,0.8,0.6,1.3
	c0,9.7,0,19.3,0,29c0,7.9,0,15.8,0,23.7c0,2.4-1.6,3.8-4.4,3.8c-2.4,0-4.8,0-7.2,0c-0.1,0-0.1,0-0.2,0c0.2-0.7,0.4-1.4,0.7-2.2h1.7
	c1.7,0,3.4,0,5.1,0c1.3,0,1.7-0.4,1.7-1.5c0-9.6,0-19.1,0-28.7V19.6H48.4c-2.7,0-4.3-1.4-4.3-3.8c0-3.6,0-7.2,0-10.9V4.1h-30
	c-1.4,0-1.8,0.4-1.8,1.6c0,22,0,43.9,0,65.9c0,1.2,0.4,1.6,1.8,1.6L20.7,73.1L20.7,73.1z M61.4,17.3l0.1-0.2L46.7,5.2
	c0,0.4,0,0.6,0,0.7c0,3.3,0,6.5,0,9.8c0,1.2,0.4,1.5,1.8,1.5L61.4,17.3L61.4,17.3z"/>
<path class="st0" d="M45,63.9c1.9,0,3.8,0,5.6,0c2.5,0,4,1.3,4,3.5c0,1.2,0,2.3,0,3.5c0,1.1-0.5,2-1.5,2.8c-0.3,0.2-0.4,0.5-0.5,0.9
	c-0.1,0.7,0,1.4,0,2.1c0,1.4-1.1,2.2-2.6,2.2c-8,0-15.9,0-23.9,0c-1.6,0-2.6-0.9-2.7-2.3c0-0.3,0-0.6,0-0.9c0.1-1,0-1.8-1-2.5
	c-0.6-0.4-0.8-1.3-0.9-2c-0.1-1.4-0.1-2.7,0-4.1c0-1.8,1.6-3.1,3.7-3.2c1.9,0,3.9,0,5.8,0c0.1,0,0.2,0,0.2-0.1
	c0.1-1.7-0.4-3.7,2.3-4.6c-0.3-2-1-4-2.3-5.8c-0.6-0.8-1.2-1.5-1.7-2.3c-3.5-5.7,1.4-12.8,8.7-12.6c6.5,0.1,11,6.2,8.6,11.7
	c-0.4,0.8-0.9,1.6-1.4,2.2c-1.6,2-2.5,4.3-2.9,6.7c1.1,0.3,1.9,0.9,2.1,1.8C44.9,61.9,44.9,62.9,45,63.9z M34,61.7c0,1,0,2,0,3
	c0,1.1-0.4,1.5-1.7,1.5c-2.2,0-4.5,0-6.7,0c-1,0-1.4,0.3-1.4,1.2c0,1.2,0,2.3,0,3.5c0,0.9,0.4,1.2,1.4,1.2c8.4,0,16.8,0,25.2,0
	c0.9,0,1.3-0.3,1.3-1.1c0-1.1,0-2.3,0-3.4c0-1-0.3-1.2-1.5-1.3c-2.2,0-4.4,0-6.6,0c-1.1,0-1.6-0.4-1.6-1.4c0-0.8,0-1.5,0-2.3
	c0-0.6-0.1-1-1-0.9c-1,0-1.6-0.5-1.5-1.3c0.4-3.3,1.2-6.4,3.5-9.1c1.3-1.4,1.8-3.2,1.5-5c-0.4-3.3-4.1-5.8-7.8-5.3
	c-5.2,0.7-7.7,6.2-4.5,10c2.1,2.5,3.3,5.3,3.8,8.3C36.6,61.3,36.5,61.4,34,61.7L34,61.7z M26.2,76.5H50v-2.2H26.2c0,0.5,0,1,0,1.5
	C26.2,76,26.2,76.2,26.2,76.5L26.2,76.5z"/>
<path class="st0" d="M37.4,26.5h17.3c0.2,0,0.5,0,0.7,0c0.7,0.1,1.1,0.5,1.2,1.1c0,0.6-0.5,1.1-1.2,1.2c-0.2,0-0.4,0-0.7,0H20.1
	c-0.3,0-0.6,0-0.8,0c-0.7-0.1-1.1-0.5-1.1-1.1s0.4-1,1.1-1.1c0.3,0,0.6,0,0.8,0L37.4,26.5z"/>
<path class="st0" d="M39.2,33.1h10.3c1.8,0,3.7,0,5.6,0c1,0,1.6,0.5,1.6,1.2s-0.6,1.1-1.6,1.1c-3.2,0-6.5,0-9.7,0
	c-0.3,0-0.5,0-0.8-0.2C43,34.2,41.2,33.6,39.2,33.1z"/>
<path class="st0" d="M35.5,33.1c-1.9,0.4-3.8,1.1-5.4,2.1c-0.2,0.1-0.6,0.2-0.9,0.2c-3.1,0-6.3,0-9.4,0c-1.1,0-1.7-0.4-1.7-1.1
	c0-0.7,0.6-1.2,1.7-1.2C25.1,33.1,30.3,33.1,35.5,33.1z"/>
<path class="st0" d="M48.7,39.6c0.9,0,1.6,0,2.4,0c1.5,0,2.9,0,4.4,0c0.8,0,1.4,0.5,1.4,1.2s-0.6,1.1-1.4,1.1c-1.7,0-3.3,0-5,0
	c-0.5,0-0.7-0.1-0.9-0.6C49.3,40.8,49,40.3,48.7,39.6z"/>
<path class="st0" d="M26.2,39.7c-0.4,0.7-0.7,1.4-1,2c-0.1,0.1-0.3,0.2-0.5,0.2c-1.7,0-3.4,0-5,0c-0.8,0-1.3-0.5-1.3-1.2
	s0.5-1.1,1.3-1.1c2.1,0,4.1,0,6.2,0C25.9,39.6,26,39.6,26.2,39.7z"/>
<path class="st0" d="M50.3,48.1v-2.3c0.2,0,0.4,0,0.6,0c1.5,0,2.9,0,4.4,0c0.8,0,1.3,0.4,1.3,1.1c0,0.7-0.5,1.2-1.3,1.2
	C53.7,48.1,52.1,48.1,50.3,48.1z"/>
<path class="st0" d="M24.3,45.8c0,0.8-0.1,1.5-0.1,2.3c-1.7,0-3.3,0-5,0c-0.6,0-1-0.5-1-1.1s0.4-1.1,0.9-1.1
	C20.8,45.8,22.5,45.8,24.3,45.8z"/>
<path class="st0" d="M26.2,13.8c0,2.1-1.6,3.8-3.7,3.8s-3.8-1.7-3.8-3.8s1.6-3.8,3.7-3.8S26.2,11.7,26.2,13.8z"/>
<path class="st0" d="M36.8,65.6c0-0.6,0.6-1.2,1.3-1.2s1.3,0.5,1.3,1.2c0,0.6-0.6,1.2-1.3,1.2l0,0C37.3,66.7,36.8,66.2,36.8,65.6z"
	/>
</svg>
