<?xml version="1.0" encoding="utf-8"?>
<!-- Generator: Adobe Illustrator 24.1.2, SVG Export Plug-In . SVG Version: 6.00 Build 0)  -->
<svg version="1.1" id="Layer_1" xmlns="http://www.w3.org/2000/svg" xmlns:xlink="http://www.w3.org/1999/xlink" x="0px" y="0px"
	 viewBox="0 0 79.4 79.4" style="enable-background:new 0 0 79.4 79.4;" xml:space="preserve">
<style type="text/css">
	.st0{fill:#018B8B;}
</style>
<g>
	<path class="st0" d="M50.4,34.7c-0.2-0.9-0.7-2.9-2.4-4.4c-0.6-0.6-1.7-1.5-2.3-1.2c-0.5,0.3-0.8,0.4-2,1.1c-0.6,0.3-1.5,0.6-2.8,1
		l-1.5,0.4c0.4,0,0.8-0.1,1.2-0.1c0.7-0.1,1.8-0.1,3,0.3c1,0.3,3,0.8,3.9,2.6c0.2,0.4,0.6,1.4,0.5,2.8v12.4H30.7v-0.1V37.1
		c0-0.3,0-0.8,0.1-1.3c0.1-0.6,0.3-1.6,0.9-2.5c0.8-1,1.8-1.4,3-1.5c0.8-0.1,1.9-0.2,3.2-0.2l1.1-0.1c-1.6-0.6-2.8-1.2-3.3-1.5
		c-0.5-0.4-0.8-0.6-0.9-0.7c-0.3-0.3-0.7-0.4-1-0.4c-1.5,0.1-3.1,1.5-3.4,1.8s-0.6,0.7-1,1.3c-0.8,1.3-1.2,2.9-1.3,4.8v13.1v0.4
		c0.2,1.2,0.6,2,1.9,2h17.4c0.2,0,0.4,0,0.8-0.1c1-0.4,2.2-1.1,2.2-2.6v-1.4c0.1-0.9,0.2-3.6,0.2-10.9
		C50.7,36.3,50.6,35.5,50.4,34.7z"/>
	<path class="st0" d="M39.9,28.3c1.9,0,3.7-0.8,5.1-2.2c1.3-1.3,2.1-3.2,2.1-5c0-1.9-0.7-3.7-2.1-5.1c-1.3-1.3-3.2-2.1-5-2.1
		c-3.9,0-7.1,3.1-7.2,7.1c0,2.1,0.7,3.9,2.1,5.1C36.1,27.5,37.9,28.3,39.9,28.3z M35.5,21.2c0-2.5,1.9-4.4,4.4-4.4
		c1.1,0,2.1,0.4,3.1,1.3c0.8,0.8,1.3,2,1.3,3.1c0,2.4-2,4.4-4.4,4.4C37.4,25.5,35.5,23.6,35.5,21.2z"/>
	<path class="st0" d="M30,28.8c0,0.1,0.1,0.3,0.1,0.5c0.1,0.2,0.1,0.4,0.2,0.5l0.1,0.3l0.2-0.2c0.5-0.4,1.1-0.7,1.7-1l0.2-0.1v-0.2
		c-0.4-1.6-1.1-2.9-2.3-3.9c-0.5-0.4-0.8-0.6-1.1-0.8c-0.5-0.2-0.9-0.6-1.4-0.3c-2.3,1.8-4.8,2-5.7,2.4l3.4,0.1h0.5
		c0.5,0,1.1,0.1,1.6,0.3C28.7,26.9,29.5,27.6,30,28.8z"/>
	<path class="st0" d="M27.2,43.2V43H13.1v-0.1V31.6c0-0.8,0.1-1.4,0.3-2.1c0.1-0.6,0.4-1.1,0.7-1.5c0,0,0.4-0.5,1-1
		c0.9-0.7,3.2-1.2,6.2-0.9l-0.8-0.3c-0.4-0.2-1-0.4-1.7-0.9c-0.2-0.1-0.3-0.2-0.5-0.4c-0.5-0.3-0.9-0.9-1.3-1c-1,0-2.4,0.2-3.9,1.6
		c-2.5,2.2-2.3,5.5-2.3,5.9v12.1v0.4c0.2,1.3,1.2,2.3,2.5,2.3h14v-0.2c0-0.5,0-0.9,0-1.3C27.2,44,27.2,43.6,27.2,43.2z"/>
	<path class="st0" d="M22.3,22.6c1.9,0,3.7-0.8,5.1-2.2c1.3-1.3,2.1-3.2,2.1-5c0-1.9-0.7-3.7-2.1-5.1c-1.3-1.3-3.2-2.1-5-2.1
		c-3.9,0-7.1,3.1-7.2,7.1c0,2.1,0.7,3.9,2.1,5.1C18.5,21.8,20.4,22.6,22.3,22.6z M17.9,15.5c0-2.5,1.9-4.4,4.4-4.4
		c1.1,0,2.1,0.4,3.1,1.3c0.8,0.8,1.3,2,1.3,3.1c0,2.4-2,4.4-4.4,4.4C19.8,19.8,17.9,17.9,17.9,15.5z"/>
	<path class="st0" d="M57.3,25.8l-1-0.4c-0.6-0.2-1.5-0.5-2.1-0.9s-1.1-0.7-1.5-1c-0.9-0.3-1.8,0.2-2.6,0.6
		c-0.1,0.1-0.2,0.1-0.2,0.1c-0.2,0.1-0.6,0.4-1.1,0.9c-1,1.1-1.7,2.3-1.9,3.6c0.4,0.3,0.8,0.5,1.2,0.8c0.3,0.2,0.6,0.4,0.9,0.6
		c0.2-0.5,0.5-1.3,1.1-2.1c0,0,0.4-0.6,1-1.1C52.1,25.9,54.4,25.3,57.3,25.8z"/>
	<path class="st0" d="M66.3,45.4c0.2,0,0.4,0,0.8-0.1c1.1-0.4,1.7-1.4,1.7-2.9V41c0.1-0.9,0.2-4.1,0.2-9.3c0-0.9-0.1-1.9-0.3-2.6
		c-0.4-1.8-1.2-3.2-2.4-4.3c-0.5-0.4-0.9-0.7-1.5-1c-0.8-0.4-1.1-0.4-1.8-0.1c-0.2,0.1-0.3,0.2-0.4,0.2c-0.5,0.3-1,0.6-1.6,1
		c-0.5,0.3-1.3,0.7-3.1,1c0.5,0,4-0.1,5.7,0.6c0.2,0.1,0.5,0.2,0.9,0.5c0.6,0.4,1.1,1,1.4,1.8c0.3,0.7,0.5,1.5,0.5,2.7v11.2H52.1
		v0.2c0,0.4,0,0.8,0,1.2s0,0.8,0,1.2v0.2h14.2V45.4z"/>
	<path class="st0" d="M58.4,22.7L58.4,22.7c2,0,3.7-0.8,5.1-2.2c1.3-1.3,2.1-3.2,2.1-5c0-1.9-0.7-3.7-2.1-5.1
		c-1.3-1.3-3.1-2.1-5-2.1c-3.9,0-7.1,3.1-7.2,7.1c0,2.1,0.7,3.9,2.1,5.1C54.7,21.9,56.5,22.7,58.4,22.7z M54.1,15.5
		c0-2.5,1.9-4.4,4.4-4.4c1.1,0,2.1,0.4,3.1,1.3c0.8,0.8,1.3,2,1.3,3.1c0,2.4-2,4.4-4.4,4.4C56,19.9,54.1,18,54.1,15.5z"/>
	<path class="st0" d="M21.9,56.2c-0.1-0.1-0.2-0.2-0.3-0.3l-7.4-6l-6.5-4.5V29.9c0-0.7-0.2-1.1-0.9-1.7c-1.3-1.1-2.9-1.5-4.5-1
		c-0.9,0.3-2.9,1.1-2.9,2.5v27.4c0,0.5,0.2,0.7,0.6,1l9.9,9.6l0,0v6.6c0,0.6,0.6,1.1,1.3,1.1h10.5c0.7,0,1.3-0.5,1.3-1.1V57.5
		C22.9,56.9,22.4,56.5,21.9,56.2z M12.2,66.9c-0.5-0.6-1.1-1.2-1.6-1.8c-0.4-0.4-0.7-0.8-1.1-1.2l-5.1-4.5L2,56.8V29.9
		c0.4-0.3,0.8-0.6,1.3-0.7c0.4-0.1,0.7,0,1,0.1s0.4,0.2,0.6,0.3c0.1,0,0.1,0.1,0.2,0.1l0,0v15.9v0.1c0,0.1,0,0.1,0,0.2
		c0,0.2,0.1,0.4,0.4,0.7L19,56.9l1.4,1.1v15.4h-8V68C12.4,67.6,12.4,67.2,12.2,66.9z"/>
	<path class="st0" d="M79.9,56.7V32.4c0-0.3,0-0.7,0-1c0-0.7,0-1.3,0-1.9c-0.1-1.1-1.9-2-3-2.3c-0.8-0.2-1.8-0.2-2.7,0
		c-0.9,0.3-2.5,1.1-2.7,2.3c-0.1,1.1,0,2.2,0,3.2c0,0.5,0,1.1,0,1.6v11.3l-13.3,9.8c-0.2,0.2-0.5,0.4-0.8,0.6
		c-0.3,0.2-0.6,0.4-0.8,0.6c-0.5,0.5-0.4,1.2-0.4,1.8c0,0.1,0,0.3,0,0.4v15.6c0,0.6,0.6,1.1,1.3,1.1H68c0.7,0,1.3-0.5,1.3-1.1V68
		l9.3-9c0.1-0.2,0.3-0.3,0.4-0.4c0.2-0.2,0.5-0.4,0.6-0.7c0.2-0.3,0.2-0.7,0.1-1C79.9,56.8,79.9,56.8,79.9,56.7z M77.5,56.8
		l-10.1,9.8c-0.6,0.6-0.5,1.5-0.5,2.3c0,0.2,0,0.4,0,0.6v3.8h-8V58l13.2-9.8l1.8-1.4c0.3-0.3,0.5-0.6,0.4-1V30l0,0
		c0.3-0.3,0.4-0.4,0.7-0.5c0.4-0.1,0.7-0.2,0.9-0.1c0.6,0.1,1,0.4,1.4,0.7v26.7H77.5z"/>
</g>
</svg>
