<?xml version="1.0" encoding="UTF-8"?>
<svg id="Layer_1" data-name="Layer 1" xmlns="http://www.w3.org/2000/svg" viewBox="0 0 100 100">
  <defs>
    <style>
      .cls-1 {
        fill: #68adad;
      }

      .cls-2 {
        fill: #528889;
      }

      .cls-3 {
        fill: #518688;
      }
    </style>
  </defs>
  <g>
    <path class="cls-2" d="m63.12,55.31l8.03,20.23h26.08v-14.91c0-.81-.45-1.52-1.12-1.98-.25-.18-.53-.47-.81-.93,0,0-4.56-5.89-10.45,0,0,0-1.62,1.52-3.34-.15,0,0-5.4-5.45-10.85,0,0,0-2.31,2.01-4.07,0,0,0-1.57-1.76-3.47-2.26Z"/>
    <polygon class="cls-1" points="2.77 41.94 37.38 41.94 45.4 55.31 63.12 55.31 73.15 75.54 97.23 75.54 97.23 94.27 2.77 94.27 2.77 41.94"/>
    <polygon class="cls-2" points="27.18 59.99 42.06 90.59 43.86 94.27 2.77 94.27 2.77 41.94 18.98 41.94 27.18 59.99"/>
    <g>
      <path class="cls-3" d="m19.22,30.53l8.02-6.85c.53-.46,1.32-.45,1.85.01l7.78,6.84c.31.27.48.66.48,1.06v10.46h-6.99v-5.12c0-.52-.42-.94-.94-.94h-2.72c-.52,0-.94.42-.94.94v5.12h-7.04v-10.45c0-.41.18-.81.5-1.08Z"/>
      <path class="cls-3" d="m28.48,19.43l12.29,10.92c.2.18.21.49.02.69l-.61.61c-.18.18-.46.18-.64.02l-11.06-9.7c-.18-.16-.44-.16-.62,0l-11.07,9.67c-.19.17-.48.15-.65-.03l-.6-.62c-.18-.19-.17-.5.03-.68l12.28-10.88c.18-.16.45-.16.63,0Z"/>
      <path class="cls-3" d="m35.51,24.83l1.69,1.38c.31.25.77.03.77-.36v-3.54c0-.26-.21-.47-.47-.47h-1.51c-.26,0-.47.21-.47.47v2.53Z"/>
    </g>
    <g>
      <rect class="cls-1" x="5.1" y="39.58" width="1.05" height="2.35"/>
      <path class="cls-1" d="m5.63,39.69h0c.76,0,1.44-.4,1.91-1.02.58-.75.87-1.84.67-2.96l-1.56-9.21c-.21-1.23-1.58-1.26-1.82-.04l-.75,3.81-1.04,5.33c-.41,2.09.86,4.1,2.58,4.1Z"/>
      <path class="cls-3" d="m7.54,38.67l-3.16-9.78-.79,3.97-.54,2.74s-.12.62-.07,1.04c0,0,.03.54.19,1.01,0,0,.18.53.39.82,0,0,.18.26.27.36s.2.22.33.32c0,0,.32.25.53.33s.25.11.39.14.32.06.45.06.37,0,.55-.05.2-.05.41-.13c0,0,.18-.08.31-.16s.23-.15.37-.28.27-.28.36-.39Z"/>
    </g>
    <g>
      <rect class="cls-1" x="11.74" y="39.58" width="1.05" height="2.35"/>
      <path class="cls-1" d="m12.27,39.69h0c.76,0,1.44-.4,1.91-1.02.58-.75.87-1.84.67-2.96l-1.56-9.21c-.21-1.23-1.58-1.26-1.82-.04l-.75,3.81-1.04,5.33c-.41,2.09.86,4.1,2.58,4.1Z"/>
      <path class="cls-3" d="m14.18,38.67l-3.16-9.78-.79,3.97-.54,2.74s-.12.62-.07,1.04c0,0,.03.54.19,1.01,0,0,.18.53.39.82,0,0,.18.26.27.36s.2.22.33.32c0,0,.32.25.53.33s.25.11.39.14.32.06.45.06.37,0,.55-.05.2-.05.41-.13c0,0,.18-.08.31-.16s.23-.15.37-.28.27-.28.36-.39Z"/>
    </g>
    <g>
      <path class="cls-2" d="m94,19.53c.01-.15.02-.31.02-.46,0-2.9-2.36-5.26-5.26-5.26-.99,0-1.94.27-2.76.79-.51-2.99-3.25-5.23-6.47-5.06-3.06.15-5.48,2.39-5.87,5.26-.55-.2-1.12-.3-1.7-.3-2.9,0-5.26,2.36-5.26,5.26,0,.06,0,.12,0,.19-1.47.4-3.58,1.25-3.57,4.25,0,2.23,1.86,4.15,4.38,4.27l26.42-.12c1.95-.65,3.41-2.66,3.3-4.84-.09-1.86-1.39-3.42-3.23-3.98Z"/>
      <path class="cls-2" d="m73.08,36.84h0c-1.29-1.74-1.21-4.72-1.27-3.77-.16,2.5-1.15,3.77-1.15,3.77h0c-.08.16-.13.33-.13.51,0,.66.6,1.2,1.34,1.2s1.34-.54,1.34-1.2c0-.18-.05-.36-.13-.51Z"/>
      <path class="cls-2" d="m79.84,33.24h0c-1.43-1.91-1.33-5.21-1.4-4.15-.18,2.76-1.26,4.15-1.26,4.15h0c-.09.17-.14.36-.14.56,0,.73.66,1.32,1.48,1.32s1.47-.59,1.47-1.32c0-.2-.05-.39-.14-.56Z"/>
      <path class="cls-2" d="m78.7,41.68h0c-1.14-1.53-1.07-4.17-1.12-3.32-.14,2.2-1.01,3.32-1.01,3.32h0c-.07.14-.11.29-.11.45,0,.58.53,1.06,1.18,1.06s1.18-.47,1.18-1.06c0-.16-.04-.31-.12-.45Z"/>
      <path class="cls-2" d="m75.22,25.02h0c-1.02-1.37-.95-3.72-1-2.97-.13,1.97-.9,2.97-.9,2.97h0c-.07.12-.1.26-.1.4,0,.52.47.94,1.05.94s1.05-.42,1.05-.94c0-.14-.04-.28-.1-.4Z"/>
      <path class="cls-2" d="m86.1,27.04c0,.77-.62,1.38-1.38,1.38s-1.38-.62-1.38-1.38.62-1.38,1.38-1.38,1.38.62,1.38,1.38Z"/>
      <path class="cls-2" d="m92.07,31.25c0,.77-.62,1.38-1.38,1.38s-1.38-.62-1.38-1.38.62-1.38,1.38-1.38,1.38.62,1.38,1.38Z"/>
      <path class="cls-2" d="m86.91,40.18c0,.76-.62,1.38-1.38,1.38s-1.38-.62-1.38-1.38.62-1.38,1.38-1.38,1.38.62,1.38,1.38Z"/>
      <path class="cls-2" d="m91.29,26.51c0,.55-.45,1-1,1s-1-.45-1-1,.44-.99,1-.99,1,.44,1,.99Z"/>
      <path class="cls-2" d="m87.06,33.16c0,.7-.57,1.26-1.26,1.26s-1.26-.56-1.26-1.26.56-1.26,1.26-1.26,1.26.56,1.26,1.26Z"/>
      <path class="cls-2" d="m91.94,37.17c0,.7-.56,1.26-1.26,1.26s-1.26-.56-1.26-1.26.56-1.26,1.26-1.26,1.26.56,1.26,1.26Z"/>
    </g>
  </g>
  <path class="cls-3" d="m48.63,41.94c-.38,0-.77,0-1.15,0-.29,0-.3-.16-.17-.36.17-.27.34-.53.51-.8l1.01-1.57s.05-.08.1-.1c.09-.03.17.06.22.14.5.81,1,1.61,1.5,2.42.03.04.05.09.05.14-.01.1-.15.13-.25.13-.35,0-.7,0-1.05,0,.03.53.05,1.12-.3,1.53-.16.19-.38.31-.55.48s-.32.41-.26.65c.04.17.19.31.33.41.48.35,1.11.58,1.35,1.13.15.34.11.76-.11,1.06-.34.47-.99.6-1.4,1-.11.11-.2.26-.18.41.01.09.07.17.12.23.37.42,1,.52,1.36.94.34.39.36,1.03.05,1.44-.28.36-.74.51-1.12.76-.15.09-.3.21-.35.38-.05.14-.03.31-.13.43-.12.15-.37.13-.5,0s-.14-.36-.08-.54.2-.32.33-.46c.25-.24.53-.44.83-.61.24-.14.54-.3.55-.58.02-.31-.31-.51-.59-.65-.29-.14-.58-.3-.81-.53s-.39-.54-.38-.86c.02-.35.24-.66.51-.88s.59-.37.88-.56c.22-.13.45-.33.43-.59-.02-.26-.28-.42-.51-.54-.51-.27-1.04-.62-1.2-1.17-.1-.32-.05-.69.13-.98.19-.3.51-.51.72-.8.22-.32.29-.75.17-1.12h-.07Z"/>
  <path class="cls-2" d="m53.46,41.94c-.38,0-.77,0-1.15,0-.29,0-.3-.16-.17-.36.17-.27.34-.53.51-.8l1.01-1.57s.05-.08.1-.1c.09-.03.17.06.22.14.5.81,1,1.61,1.5,2.42.03.04.05.09.05.14-.01.1-.15.13-.25.13-.35,0-.7,0-1.05,0,.03.53.05,1.12-.3,1.53-.16.19-.38.31-.55.48s-.32.41-.26.65c.04.17.19.31.33.41.48.35,1.11.58,1.35,1.13.15.34.11.76-.11,1.06-.34.47-.99.6-1.4,1-.11.11-.2.26-.18.41.01.09.07.17.12.23.37.42,1,.52,1.36.94.34.39.36,1.03.05,1.44-.28.36-.74.51-1.12.76-.15.09-.3.21-.35.38-.05.14-.03.31-.13.43-.12.15-.37.13-.5,0s-.14-.36-.08-.54.2-.32.33-.46c.25-.24.53-.44.83-.61.24-.14.54-.3.55-.58.02-.31-.31-.51-.59-.65-.29-.14-.58-.3-.81-.53s-.39-.54-.38-.86c.02-.35.24-.66.51-.88s.59-.37.88-.56c.22-.13.45-.33.43-.59-.02-.26-.28-.42-.51-.54-.51-.27-1.04-.62-1.2-1.17-.1-.32-.05-.69.13-.98.19-.3.51-.51.72-.8.22-.32.29-.75.17-1.12h-.07Z"/>
  <path class="cls-3" d="m58.13,41.94c-.38,0-.77,0-1.15,0-.29,0-.3-.16-.17-.36.17-.27.34-.53.51-.8l1.01-1.57s.05-.08.1-.1c.09-.03.17.06.22.14.5.81,1,1.61,1.5,2.42.03.04.05.09.05.14-.01.1-.15.13-.25.13-.35,0-.7,0-1.05,0,.03.53.05,1.12-.3,1.53-.16.19-.38.31-.55.48s-.32.41-.26.65c.04.17.19.31.33.41.48.35,1.11.58,1.35,1.13.15.34.11.76-.11,1.06-.34.47-.99.6-1.4,1-.11.11-.2.26-.18.41.01.09.07.17.12.23.37.42,1,.52,1.36.94.34.39.36,1.03.05,1.44-.28.36-.74.51-1.12.76-.15.09-.3.21-.35.38-.05.14-.03.31-.13.43-.12.15-.37.13-.5,0s-.14-.36-.08-.54.2-.32.33-.46c.25-.24.53-.44.83-.61.24-.14.54-.3.55-.58.02-.31-.31-.51-.59-.65-.29-.14-.58-.3-.81-.53s-.39-.54-.38-.86c.02-.35.24-.66.51-.88s.59-.37.88-.56c.22-.13.45-.33.43-.59-.02-.26-.28-.42-.51-.54-.51-.27-1.04-.62-1.2-1.17-.1-.32-.05-.69.13-.98.19-.3.51-.51.72-.8.22-.32.29-.75.17-1.12h-.07Z"/>
</svg>