<?xml version="1.0" encoding="utf-8"?>
<!-- Generator: Adobe Illustrator 24.1.2, SVG Export Plug-In . SVG Version: 6.00 Build 0)  -->
<svg version="1.1" id="Layer_1" xmlns="http://www.w3.org/2000/svg" xmlns:xlink="http://www.w3.org/1999/xlink" x="0px" y="0px"
	 viewBox="0 0 42.5 42.5" style="enable-background:new 0 0 42.5 42.5;" xml:space="preserve">
<style type="text/css">
	.st0{fill:#666666;}
</style>
<path class="st0" d="M30.7,35.1c-2.5,0-5.3-0.8-8-2.2c-2.5-1.3-5-3.1-7.2-5.3s-3.9-4.8-5.2-7.3c-1.4-2.7-1.9-5.2-2-7.7
	c-0.1-1.8,1.4-3.1,2-3.7C10.9,8.3,12.7,7,13.8,7c0.5,0,1.2,0.3,2,1.1c0.6,0.6,1.3,1.3,2,2.2c0.4,0.5,2.4,3.2,2.4,4.5
	c0,1.1-1.2,1.8-2.5,2.6c-0.5,0.3-1,0.6-1.4,0.9s-0.5,0.5-0.5,0.5c1.3,3.3,5.4,7.4,8.8,8.8c0,0,0.2-0.1,0.5-0.5s0.6-0.9,0.9-1.4
	c0.8-1.3,1.5-2.5,2.6-2.5c1.3,0,4,2,4.5,2.4c0.9,0.7,1.6,1.4,2.2,2c0.7,0.8,1.1,1.4,1.1,2c0,1.1-1,2.5-1.9,3.5
	C33.9,33.7,32.4,35.1,30.7,35.1z M13.8,8.4c-0.4,0-1.4,0.5-2.5,1.5s-1.7,2-1.7,2.7c0,9.5,11.7,21.2,21.2,21.2c0.7,0,1.8-0.7,2.7-1.7
	c1-1.1,1.5-2.1,1.5-2.5c0-0.3-0.8-1.3-2.8-2.9c-1.7-1.3-3.2-2.1-3.5-2.1c0,0-0.2,0.1-0.5,0.5s-0.6,0.8-0.9,1.3
	c-0.8,1.3-1.5,2.5-2.6,2.5c-0.2,0-0.3,0-0.5-0.1c-3.7-1.5-8.1-5.9-9.6-9.6c-0.2-0.4-0.2-1.1,0.7-1.9c0.5-0.4,1.1-0.8,1.7-1.2
	c0.5-0.3,1-0.6,1.3-0.9c0.4-0.3,0.5-0.5,0.5-0.5c0-0.4-0.7-1.8-2.1-3.5C15.1,9.2,14,8.5,13.8,8.4L13.8,8.4z"/>
</svg>
