<?xml version="1.0" encoding="utf-8"?>
<!-- Generator: Adobe Illustrator 24.1.2, SVG Export Plug-In . SVG Version: 6.00 Build 0)  -->
<svg version="1.1" id="Layer_1" xmlns="http://www.w3.org/2000/svg" xmlns:xlink="http://www.w3.org/1999/xlink" x="0px" y="0px"
	 viewBox="0 0 42.5 42.5" style="enable-background:new 0 0 42.5 42.5;" xml:space="preserve">
<style type="text/css">
	.st0{fill:#666666;}
</style>
<path class="st0" d="M39.7,27.3c0-1.4-1.1-2.5-2.6-2.5c-0.3,0-0.5,0-0.8,0h-0.7c-0.1,0-0.1,0-0.2,0h-0.2v-0.5c0-0.2,0-0.4,0-0.6
	v-0.2c0-0.5,0-1.1,0-1.7C35.1,20.1,34,19,32.3,19c-2,0-5.3,0-7.2,0h-2.9v-2h0.7c0.4,0,0.9,0,1.3,0c1.5,0,2.5-1.1,2.6-2.6
	c0-1.8,0-3.8,0-5.7c0-1.4-1.1-2.5-2.5-2.5c-1.9,0-3.9,0-5.7,0c-1.4,0-2.5,1-2.5,2.5c0,1.8,0,3.6,0,5.8c0,1.2,0.8,2.1,1.9,2.4
	c0.3,0.1,0.6,0.1,0.9,0.1H19c0.4,0,0.8,0,1.2,0h0.6v2h-4.2c-1.8,0-4.2,0-5.8,0c-1.5,0-2.4,0.8-2.7,2.3C8,21.7,8,22,8,22.5v0.2
	c0,0.5,0,0.9,0,1.4v0.7l-2.2,0c-1.6,0-2.6,1-2.6,2.6c0,1.8,0,3.7,0,5.5c0,1.6,1,2.6,2.6,2.6c1.7,0,3.4,0,5.1,0h0.4
	c1.6,0,2.7-1,2.7-2.6c0-2,0-3.8,0-5.5c0-0.3,0-0.5-0.1-0.7c-0.3-1.1-1.2-1.9-2.4-1.9c-0.4,0-0.8,0-1.3,0H9.5v-0.1c0-0.3,0-0.6,0-0.9
	v-0.1c0-0.7,0-1.4,0-2.1c0-0.8,0.4-1.1,1.3-1.1c2.7,0,6.7,0,9.5,0c0.1,0,0.2,0,0.2,0h0.2v4.3h-0.9c-0.4,0-0.8,0-1.2,0
	c-1.5,0-2.5,1.1-2.5,2.5c0,1.9,0,3.7,0,5.7c0,1.5,1.1,2.5,2.5,2.5c1.9,0,3.8,0,5.6,0c1.5,0,2.6-1.1,2.6-2.6c0-1.9,0-3.8,0-5.6
	c0-0.1,0-0.3,0-0.5c-0.2-1.2-1.2-2-2.4-2c-0.4,0-0.9,0-1.3,0c-0.2,0-0.4,0-0.6,0h-0.1v-4.3h10.2c0.8,0,1.2,0.3,1.3,1.1
	c0.1,0.5,0.1,1.1,0.1,1.6v0.1c0,0.2,0,0.3,0,0.5s0,0.3,0,0.5v0.5h-1.5c-0.3,0-0.5,0-0.8,0c-1.4,0-2.5,1.1-2.5,2.5c0,1.8,0,3.7,0,5.7
	c0,1.5,1.1,2.5,2.5,2.5c0.9,0,1.8,0,2.7,0c1,0,2,0,3,0c1.5,0,2.5-1,2.5-2.5C39.7,31.1,39.7,29.2,39.7,27.3z M35.6,34.1h-4
	c-0.8,0-1.2-0.4-1.2-1.2c0-1.8,0-3.6,0-5.5c0-0.8,0.4-1.1,1.2-1.1s1.5,0,2.3,0c1.1,0,2.1,0,3.2,0c0.8,0,1.2,0.4,1.2,1.1
	c0,1.8,0,3.6,0,5.5c0,0.8-0.4,1.2-1.2,1.2H35.6z M17.5,27.4c0-0.7,0.4-1.1,1.1-1.1c1.1,0,2.3,0,3.4,0c0.7,0,1.5,0,2.2,0
	s1.1,0.4,1.1,1.1c0,1.8,0,3.7,0,5.5c0,0.7-0.4,1.1-1.1,1.1h-2.7h-2.8c-0.8,0-1.1-0.4-1.1-1.1v-3.6C17.5,28.7,17.5,28.1,17.5,27.4z
	 M24.1,15.6c-0.6,0-1.3,0-1.9,0h-0.8h-1.7h-1.1c-0.7,0-1.1-0.4-1.1-1.1c0-1.9,0-3.7,0-5.6c0-0.7,0.4-1.1,1.1-1.1c1.9,0,3.8,0,5.6,0
	c0.7,0,1.1,0.4,1.1,1.1c0,1.8,0,3.7,0,5.6C25.2,15.2,24.8,15.6,24.1,15.6z M12.4,33c0,0.7-0.4,1.1-1.1,1.1c-1.9,0-3.8,0-5.6,0
	c-0.7,0-1.1-0.4-1.1-1.1c0-1.8,0-3.7,0-5.6c0-0.7,0.4-1.1,1.1-1.1c0.4,0,0.8,0,1.1,0c0.3,0,0.5,0,0.8,0h1.7c0.6,0,1.3,0,1.9,0
	c0.7,0,1.1,0.4,1.1,1.1C12.4,29.3,12.4,31.2,12.4,33z"/>
</svg>
