<svg width="36" height="36" viewBox="0 0 36 36" fill="none" xmlns="http://www.w3.org/2000/svg">
<path d="M16.1128 24.4711C17.9095 24.4711 19.5932 23.9287 20.9945 23.0021L25.944 27.9629C26.2717 28.2793 26.6898 28.4375 27.1418 28.4375C28.0797 28.4375 28.769 27.703 28.769 26.7764C28.769 26.347 28.6221 25.9289 28.3057 25.6124L23.3901 20.6742C24.4071 19.2278 25.006 17.4763 25.006 15.5778C25.006 10.6848 21.0058 6.68457 16.1128 6.68457C11.2311 6.68457 7.21948 10.6848 7.21948 15.5778C7.21948 20.4708 11.2198 24.4711 16.1128 24.4711ZM16.1128 22.0981C12.5306 22.0981 9.59253 19.16 9.59253 15.5778C9.59253 11.9957 12.5306 9.05762 16.1128 9.05762C19.6949 9.05762 22.633 11.9957 22.633 15.5778C22.633 19.16 19.6949 22.0981 16.1128 22.0981Z" fill="#999999"/>
</svg>
