<?xml version="1.0" encoding="utf-8"?>
<!-- Generator: Adobe Illustrator 24.1.2, SVG Export Plug-In . SVG Version: 6.00 Build 0)  -->
<svg version="1.1" id="Layer_1" xmlns="http://www.w3.org/2000/svg" xmlns:xlink="http://www.w3.org/1999/xlink" x="0px" y="0px"
	 viewBox="0 0 42.5 42.5" style="enable-background:new 0 0 42.5 42.5;" xml:space="preserve">
<style type="text/css">
	.st0{fill:#666666;}
</style>
<path class="st0" d="M34.9,6H15.5c-2.5,0-4.6,1.9-4.6,4.3v12.1c0,2.4,2.1,4.3,4.6,4.3h11.4l6.8,6.3l-0.1-6.1h1.3
	c2.5,0,4.6-1.9,4.6-4.3V10.3C39.5,7.9,37.4,6,34.9,6z M32.1,25.3v4.3l-4.8-4.3H15.5c-1.8,0-3.2-1.2-3.2-2.8V10.2
	c0-1.5,1.5-2.8,3.2-2.8c5,0,17.5,0,19.2,0.1h0.2c1.8,0,3.2,1.2,3.2,2.8v12.2c0,1.5-1.5,2.8-3.2,2.8H32.1z"/>
<path class="st0" d="M28.7,29.8L28.6,30c-0.6,0.7-1.4,1-2.3,1H14.9l-4.5,4v-4H7.8c-1.6,0-3-1.2-3-2.6V16.6c0-1.4,1.3-2.6,3-2.6h3.7
	v-1.5H7.8c-2.4,0-4.5,1.9-4.5,4.1v11.7c0,2.3,2,4.1,4.5,4.1h1.1v6l6.6-6h10.8c1.3,0,2.5-0.5,3.6-1.6l0.2-0.2L28.7,29.8z"/>
</svg>
