<?xml version="1.0" encoding="utf-8"?>
<!-- Generator: Adobe Illustrator 24.1.2, SVG Export Plug-In . SVG Version: 6.00 Build 0)  -->
<svg version="1.1" id="Layer_1" xmlns="http://www.w3.org/2000/svg" xmlns:xlink="http://www.w3.org/1999/xlink" x="0px" y="0px"
	 viewBox="0 0 79.4 79.4" style="enable-background:new 0 0 79.4 79.4;" xml:space="preserve">
<style type="text/css">
	.st0{fill:#018B8B;}
</style>
<path class="st0" d="M2.4,75.8V48.2h9.2c2.8,0,4.8,1.9,4.9,4.7c0,0.1,0,0.1,0,0.2c0.9-0.3,1.8-0.5,2.7-0.8c1.7-0.5,3.3-1,5-1.4
	c1.4-0.3,2.8-0.4,4.2-0.3c1,0.1,1.9,0.1,2.9,0.3c1.5,0.3,3,0.7,4.4,1.4c3.4,1.9,6.7,3.7,10.1,5.6c1.2,0.7,2.2,1.6,3,2.7
	c0.6,0.9,1,1.8,0.8,2.9c-0.3,1.7-1.4,2.6-3.3,2.7c-1.8,0.1-3.5-0.3-5.2-0.9c-2.5-0.8-5-1.6-7.5-2.4c-0.6-0.2-1-0.8-0.8-1.4l0,0
	c0.1-0.6,0.7-1,1.4-0.8h0.1c1.6,0.5,3.2,1.1,4.9,1.6c2,0.6,4,1.1,5.9,1.5c0.4,0.1,0.9,0.1,1.3,0.1c0.6,0,1-0.5,0.8-1.1
	c-0.2-0.7-0.6-1.2-1.1-1.6c-3.6-2.7-7.7-4.5-11.6-6.7c-1.5-0.8-3.1-1.2-4.8-1.4c-2.2-0.3-4.5,0-6.7,0.6c-2,0.6-4.1,1.2-6.1,1.8
	c-0.2,0.1-0.4,0.1-0.4,0.4c0,3.8,0,7.6,0,11.5c0,0.1,0,0.2,0,0.2c0.5-0.3,1-0.5,1.5-0.8c2-1.3,4.2-1.4,6.3-0.5c2.5,1,5,2.1,7.4,3.3
	c2.4,1.1,4.7,2.3,7.1,3.4c2.5,1.1,5.1,1.4,7.7,1.2c3.5-0.3,6.9-1.3,10.1-2.6c4.7-1.8,9.3-3.6,14-5.5c1.1-0.5,2.2-1.1,3.3-1.8
	c0.5-0.3,0.9-0.8,1.1-1.3c0.4-0.8,0-1.6-0.9-1.6c-0.5,0-1,0-1.5,0.1c-1.5,0.3-3.1,0.5-4.6,0.8c-2.3,0.4-4.7,0.9-7,1.3
	c-2.6,0.5-5.2,1-7.8,1.5c-0.7,0.1-1.3-0.2-1.5-0.9c-0.1-0.7,0.3-1.3,1-1.4c4-0.8,8-1.5,12-2.3c2.6-0.5,5.3-1,7.9-1.5
	c1.2-0.2,2.4,0,3.5,0.6c1.2,0.7,1.7,2.4,1.3,3.9c-0.4,1.1-1.1,2-2.1,2.7c-1.7,1.3-3.6,2-5.5,2.8c-3.4,1.3-6.7,2.6-10.1,3.9
	c-2.9,1.1-5.8,2.3-8.9,2.9c-3.6,0.8-7.3,1-10.9,0c-1.9-0.5-3.6-1.5-5.4-2.3c-3.3-1.6-6.7-3.1-10-4.7c-1.1-0.5-2.2-0.8-3.4-0.7
	c-0.6,0.1-1.1,0.2-1.6,0.5c-0.8,0.4-1.6,0.9-2.4,1.3c-0.6,0.3-0.8,0.6-0.8,1.3c0,1.6-0.7,2.9-2,3.8c-0.7,0.5-1.5,0.8-2.3,0.8
	C9,75.8,5.7,75.8,2.4,75.8z M4.8,73.5h1.1c1.9,0,3.9,0,5.8,0c1.5,0,2.4-1,2.4-2.5V53.2c0-1.7-0.9-2.6-2.6-2.6H6.2H4.8V73.5z"/>
<path class="st0" d="M28,48.4V20.9h0.4c5.3,0,10.7,0,16,0c0.3,0,0.5-0.1,0.7-0.3c2.1-1.9,4.1-3.7,6.2-5.6c0.2-0.2,0.3-0.4,0.3-0.6
	c0-4.1,0-8.2,0-12.3V1.2h13.1v8.4H54c0,0.1,0,0.3,0,0.4c0,1.5,0,3,0,4.6c0,0.2,0.1,0.4,0.2,0.5c2.1,1.9,4.2,3.8,6.3,5.6
	c0.2,0.2,0.4,0.3,0.6,0.2c5.3,0,10.7,0,16,0h0.4v27.4H28V48.4z M42.4,26.3h20.7L52.8,17L42.4,26.3z M43.7,28.7c0,0.1,0,0.2,0,0.2
	c0,5.6,0,11.2,0,16.8c0,0.3,0.1,0.3,0.3,0.3c1.3,0,2.5,0,3.8,0c0.3,0,0.4-0.1,0.4-0.4c0-5.5,0-11,0-16.5v-0.4L43.7,28.7z M57.4,28.7
	c0,0.1,0,0.2,0,0.3c0,5.6,0,11.1,0,16.7c0,0.2,0.1,0.3,0.3,0.3c1.3,0,2.6,0,3.9,0c0.1,0,0.2,0,0.3,0V28.7H57.4z M37,28.7
	c0,0.1,0,0.2,0,0.3c0,5.6,0,11.2,0,16.8c0,0.3,0.1,0.3,0.3,0.3c1.3,0,2.5,0,3.8,0c0.1,0,0.2,0,0.3,0V28.7H37z M64.2,28.7V46h4
	c0.4,0,0.4,0,0.4-0.4V28.7H64.2z M55,46V28.7h-4.4v16.9c0,0.1,0,0.2,0,0.2c0,0.1,0.1,0.2,0.2,0.2C52.2,46,53.5,46,55,46z M30.4,28.7
	c0,0.1,0,0.2,0,0.2c0,5.6,0,11.2,0,16.8c0,0.3,0.1,0.3,0.3,0.3c1.1,0,2.3,0,3.4,0c0.4,0,0.4,0,0.4-0.4c0-5.5,0-11,0-16.5v-0.4
	L30.4,28.7z M71,28.7c0,0.1,0,0.2,0,0.3c0,5.6,0,11.1,0,16.7c0,0.3,0,0.3,0.3,0.3c1.2,0,2.3,0,3.5,0c0.3,0,0.4-0.1,0.4-0.4
	c0-5.5,0-11,0-16.6v-0.4L71,28.7z M63.4,23.3c0.1,0.1,0.1,0.1,0.2,0.2c1,0.9,2,1.8,3,2.7c0.1,0.1,0.3,0.2,0.5,0.1c2.6,0,5.2,0,7.8,0
	c0.1,0,0.2,0,0.3,0v-3L63.4,23.3z M30.4,26.3c0.1,0,0.1,0,0.2,0c2.7,0,5.4,0,8,0c0.1,0,0.3-0.1,0.4-0.2c1-0.9,2-1.7,2.9-2.6
	c0.1,0,0.1-0.1,0.2-0.2H30.4V26.3z M62.3,3.6L62.3,3.6c-2.8,0-5.4,0-8.1,0C54,3.5,54,3.7,54,3.9c0,1,0,2,0,2.9
	c0,0.3,0.1,0.4,0.4,0.4c2.6,0,5.1,0,7.7,0c0.1,0,0.2,0,0.3,0L62.3,3.6z"/>
</svg>
