<?xml version="1.0" encoding="utf-8"?>
<!-- Generator: Adobe Illustrator 24.1.2, SVG Export Plug-In . SVG Version: 6.00 Build 0)  -->
<svg version="1.1" id="Layer_1" xmlns="http://www.w3.org/2000/svg" xmlns:xlink="http://www.w3.org/1999/xlink" x="0px" y="0px"
	 viewBox="0 0 42.5 42.5" style="enable-background:new 0 0 42.5 42.5;" xml:space="preserve">
<style type="text/css">
	.st0{fill:#666666;}
</style>
<path class="st0" d="M9.1,20.4c-0.4,0-0.7,0.3-0.7,0.7s0.4,0.7,0.8,0.7h12l0.7-1.5L9.1,20.4L9.1,20.4z"/>
<path class="st0" d="M31.4,23.3l-1.3,1.1v3.5c0,1-0.8,1.8-1.8,1.8H10.4c-0.6,0-1.1,0.2-1.5,0.6L4.1,35V13c0-1,0.8-1.9,1.9-1.9h22.3
	c0.7,0,1.3,0.3,1.7,1l0.1,0.2l1.1-1v-0.1c-0.5-1-1.6-1.7-2.8-1.7H6.1c-1.9,0-3.3,1.5-3.3,3.3v24.6c0,0.2,0.1,0.4,0.3,0.4
	c0.1,0,0.1,0,0.2,0s0.2,0,0.3-0.1l6.8-6.6h18.2c1.8,0,3.2-1.5,3.2-3.2v-4.8L31.4,23.3z"/>
<path class="st0" d="M40.1,10.1c-0.6-0.6-1.4-1-2.2-1.1c-0.7-0.1-1.6,0.1-2.3,0.7l-9.7,8c-0.5,0.4-0.8,0.8-0.9,1.1L22.7,24
	c-0.1,0.3-0.4,0.9-0.2,1.2c0,0,0.1,0.1,0.2,0.1c0.1,0,0.2,0,0.4-0.1c0.1,0,0.2-0.1,0.3-0.1l5.5-1.9c0.4-0.2,0.7-0.4,1-0.6l9.9-8.1
	C41,13.5,41.2,11.4,40.1,10.1z M36.6,15.5l-7.5,6.2c-0.1,0.1-0.3,0.2-0.5,0.3c-0.1,0-0.1,0-0.1,0.1l-4.1,1.4l1.8-4
	c0.1-0.1,0.2-0.2,0.3-0.3s0.2-0.2,0.3-0.3l7.4-6L36.6,15.5z M35.1,11.9l1.5-1.2c0.3-0.3,0.7-0.4,1.4-0.4c0.4,0,0.8,0.2,1.3,0.6
	c0.3,0.3,0.5,0.8,0.4,1.3c0,0.5-0.3,1-0.7,1.3l-1.4,1.1L35.1,11.9z"/>
<path class="st0" d="M9.1,16.2c-0.3,0-0.8,0.2-0.8,0.6v0.1c0,0.2,0.3,0.6,0.8,0.6H23h0.1l2-1.4L9.1,16.2L9.1,16.2z"/>
<path class="st0" d="M8.8,24.4c0,0-0.1,0-0.2,0c-0.2,0.1-0.3,0.4-0.3,0.7c0,0.4,0.4,0.7,0.7,0.7h10.1c0.2,0,0.3-0.1,0.3-0.1l0.5-1.2
	H8.8V24.4z"/>
</svg>
