<?xml version="1.0" encoding="utf-8"?>
<!-- Generator: Adobe Illustrator 24.1.2, SVG Export Plug-In . SVG Version: 6.00 Build 0)  -->
<svg version="1.1" id="Layer_1" xmlns="http://www.w3.org/2000/svg" xmlns:xlink="http://www.w3.org/1999/xlink" x="0px" y="0px"
	 viewBox="0 0 79.4 79.4" style="enable-background:new 0 0 79.4 79.4;" xml:space="preserve">
<style type="text/css">
	.st0{fill:#028989;}
</style>
<g>
	<path class="st0" d="M64.9,48.3c-0.3-2.8-1-5.4-2-7.8c-1.7-4.4-4-8.7-5.9-12.2c-5.2-9.5-11.3-18.4-16.1-25c-0.6-0.8-1-1.2-1.5-1.2
		l0,0c-0.5,0-0.9,0.3-1.5,1.2c-0.9,1.4-2,2.9-2.9,4.3c-2.6,3.7-5.2,7.7-7.8,11.7c-3.8,5.9-7,11.5-9.6,17.3c-1.5,3.3-2.8,6.3-3.3,9.7
		c-0.6,3.4-0.5,6.8,0.5,9.9c1.3,4.7,3.7,8.7,7.2,12c4.8,4.4,10.6,6.9,16.8,7l0,0l0,0c3.6,0,6.4-0.5,9.1-1.5
		c7.7-2.8,12.9-8.2,15.7-15.9C64.9,54.3,65.4,51.2,64.9,48.3z M62.3,51c-0.3,4.8-2,9.1-5.1,12.8c-3,3.7-7,6.3-11.7,7.6
		c-2.8,0.8-5.6,0.9-8.5,0.7c-5.4-0.6-10-2.9-13.9-6.8c-3-3-5-6.8-5.9-11.1c-0.8-3.3-0.6-6.8,0.5-10.5c0.8-2.7,2-5.2,3.1-7.8
		c4-8.2,8.9-16,13.6-23.1c1.2-1.6,2.2-3.3,3.4-5c0.7-0.6,1.2-1.3,1.7-2l0,0L39.6,6c0.4,0.6,0.6,1,1,1.4C46,15.1,49.9,21.2,53.3,27
		c3.1,5.4,5.5,10.3,7.3,14.9C61.9,45.3,62.5,48.3,62.3,51z"/>
	<path class="st0" d="M53.2,39L53.2,39c-0.2-0.2-0.3-0.3-0.7-0.3c-0.5-0.1-1.3-0.2-2-0.2c-2.2,0-4.4,0-6.5,0c-0.8,0-1.6,0-2.4,0
		h-0.1c0-0.1,0.1-0.1,0.1-0.2l1.3-2.1c0.7-1.2,1.3-2.2,2-3.4c0.3-0.7,0.8-1.3,1-2.1c0.2-0.5,0.1-0.8,0-1s-0.3-0.5-0.9-0.6
		C44.7,29,44.3,29,44,29l0,0c-0.6,0-1.3,0-1.9,0c-0.8,0-1.5,0-2.3,0c-1.2,0-2.3,0-3.5,0h-1.9c-1.4,0-2.1,0.5-2.6,1.9
		c-0.7,2.2-1.3,4.4-2,6.6c-0.6,1.7-1,3.6-1.6,5.4c-0.2,0.9-0.6,1.9-0.7,2.7c-0.1,0.5-0.1,0.8,0.1,1.2c0.2,0.2,0.6,0.5,1,0.5
		c0.6,0.1,1.2,0.1,1.6,0.1c2.6,0,5.1,0,7.6,0l0,0c0.1,0,0.2,0,0.2,0v0.1c0,0.3-0.1,0.8-0.1,1.2c-0.1,0.6-0.1,1-0.2,1.6v1.3
		c-0.5,3.1-0.8,6.3-1.3,9.3c-0.1,0.8,0.2,1.4,0.6,2l0.1,0.2l0.5-0.2c0.7-0.2,1.3-0.6,1.7-1.3c4.1-6.1,8.2-12.1,12.4-18.3
		c0.7-0.9,1.3-2,1.6-3.3c0.1-0.2,0-0.5-0.1-0.7L53.2,39z M39.9,55.6c0.1-0.7,0.1-1.5,0.2-2.2c0.2-1.4,0.5-2.8,0.6-4.1
		c0.1-0.9,0.2-1.9,0.5-2.8c0.1-0.7,0-1.2-0.3-1.5c-0.2-0.3-0.7-0.6-1.4-0.6c-1.3,0-2.4,0-3.7,0c-0.8,0-1.6,0-2.4,0h-2.7l0.1-0.2
		c0.1-0.5,0.2-0.8,0.3-1.2c1-3.5,2-7,3-10.4c0.2-0.9,0.6-1.2,1.5-1.2c1.9,0,3.7,0,5.5,0h1l0,0l-1.2,2.1c-0.9,1.6-1.9,3.4-2.8,5
		c-0.2,0.3-0.3,0.7-0.5,1c-0.1,0.3-0.1,0.7,0.1,0.9c0.1,0.2,0.3,0.5,0.7,0.5c0.3,0.1,0.8,0.1,1.3,0.1c2.4,0,5,0,7.5,0h2.3L39.9,55.6
		L39.9,55.6z"/>
</g>
</svg>
