<?xml version="1.0" encoding="utf-8"?>
<!-- Generator: Adobe Illustrator 25.4.1, SVG Export Plug-In . SVG Version: 6.00 Build 0)  -->
<svg version="1.1" id="Layer_1" xmlns="http://www.w3.org/2000/svg" xmlns:xlink="http://www.w3.org/1999/xlink" x="0px" y="0px"
	 viewBox="0 0 150 150" style="enable-background:new 0 0 150 150;" xml:space="preserve">
<style type="text/css">
	.st0{fill:#008A8A;}
</style>
<g>
	<path class="st0" d="M20.4,147.9c0,0.7,0.6,1.2,1.4,1.2h107.5c0.8,0,1.4-0.5,1.4-1.2v-27.3c0-12.9-10.3-30.7-27.9-30.7h-4.5
		c-0.5,0-1,0.3-1.2,0.7l-0.4,0.7c-4.1,7-12.2,11.4-21.1,11.4c-8.9,0-16.9-4.4-21.1-11.4L54,90.6c-0.2-0.4-0.7-0.7-1.2-0.7h-3.7
		c-15.9,0-28.7,14.9-28.7,33.2V147.9z M67.6,108c0.5-0.7,1.3-1,2.2-0.9c4,0.7,8.2,0.7,12.2-0.1c0.9-0.2,1.8,0.1,2.2,0.8
		c0.4,0.6,0.5,1.3,0.1,1.9L77.8,121c-0.4,0.6-1.1,1-1.9,1c0,0,0,0,0,0c-0.8,0-1.5-0.4-1.9-1L67.5,110
		C67.1,109.4,67.2,108.6,67.6,108z M26.1,120.9c0-5.2,2.4-11.7,6.2-16.8C36.6,98.2,42,95,47.3,95h1.7c0.7,0,1.4,0.3,1.7,0.9
		c1.2,1.7,2.8,3.3,4.5,4.8c0.2,0.1,0.3,0.3,0.4,0.5l19,32c0.2,0.4,0.7,0.7,1.3,0.7c0.5,0,1-0.3,1.2-0.7L96.4,100
		c1.5-1.3,2.8-2.7,3.8-4.1c0.4-0.5,1.1-0.9,1.8-0.9h1.7c11.3,0,21.2,12.6,21.2,26.9v20.3c0,1.1-0.9,1.9-2.1,1.9H28.2
		c-1.2,0-2.1-0.9-2.1-1.9V120.9z"/>
	<path class="st0" d="M108.6,66c1.2,0.8,2.7,1.2,4.3,1.2c1.6,0,3.1-0.4,4.3-1.2c0.6-0.3,2.4-1.6,2.4-4v-0.1l-1.7-16.1l0,0
		c0-0.3,0.1-0.5,0.1-0.8c0-1.6-0.7-3-2-4c-0.4-0.3-0.7-0.9-0.7-1.5v-9.9c0-0.7,0.4-1.4,1-1.7c0.4-0.2,0.6-0.6,0.6-1.1
		c0-0.5-0.2-0.8-0.6-1.1l-1-0.5v-0.1l-0.3,0l-39.8-21c-0.4-0.2-0.8-0.2-1.1,0L32,26.8c-0.4,0.2-0.6,0.6-0.6,1.1
		c0,0.5,0.2,0.8,0.6,1.1l14.9,7.9c0.6,0.3,1,1,1,1.7V61h0.3v0.4c0,0.1,0,0.2,0,0.3c0,0.1,0,0.2,0,0.2c0,14.6,11.8,26.4,26.4,26.4
		c14.6,0,26.4-11.8,26.4-26.4c0-1.8-0.2-3.7-0.6-5.5c0-0.1,0-0.2,0-0.4V37.7c0-0.7,0.4-1.3,1-1.7l6.1-3.3c0.6-0.3,1.3-0.3,1.9,0
		c0.6,0.3,0.9,1,0.9,1.6v5.3c0,0.6-0.2,1.1-0.6,1.4c-1.1,1-1.8,2.4-1.8,3.8c0,0.3,0,0.5,0.1,0.9l0,0.1l0,0.1l-1.7,16l0,0.1
		C106.3,64.4,108.1,65.7,108.6,66z M95.9,63.1c-0.6,11.3-10,20.2-21.4,20.2h0c-11.3,0-20.7-8.9-21.3-20.2l0-0.2L55,61h39.1l1.8,1.9
		L95.9,63.1z M52.9,54.1V43.2c0-0.7,0.3-1.3,0.9-1.6c0.6-0.3,1.3-0.4,1.9-0.1l17.4,9.2c0.4,0.2,0.8,0.2,1.1,0l0.6-0.3l17.7-9.5
		c0.6-0.3,1.3-0.3,1.9,0c0.6,0.3,0.9,1,0.9,1.6v11.6c0,1.1-0.9,1.9-1.9,1.9H54.8C53.7,56,52.9,55.2,52.9,54.1z M98.5,23.7
		c-0.2,0.9-1,1.5-1.9,1.5h-13c-0.6,0-1.2-0.3-1.5-0.7c-0.5-0.7-1.2-1.4-2.1-1.8c-1.6-1-3.7-1.5-6-1.5c-2.3,0-4.3,0.5-5.9,1.5
		c-0.9,0.6-3.1,2.1-3.1,4.9c0,2.8,2.2,4.4,3.1,4.9c1.7,1,3.7,1.5,5.9,1.5c2.2,0,4.3-0.5,6-1.5c0.7-0.4,1.4-1,1.9-1.6
		c0.4-0.4,0.9-0.7,1.5-0.7h10.7c0.9,0,1.6,0.6,1.9,1.4s-0.2,1.7-0.9,2.2L74.6,44.9c-0.3,0.2-0.6,0.2-0.9,0.2c-0.3,0-0.6-0.1-0.9-0.2
		L43.7,29.5c-0.6-0.3-1-1-1-1.7s0.4-1.4,1-1.7l30-16.2c0.6-0.3,1.2-0.3,1.8,0l22.1,11.7C98.3,22,98.7,22.9,98.5,23.7z M78.7,27.9H78
		c-0.5,0.5-2,1.1-3.7,1.1c-0.1,0-0.1,0-0.2,0c-1.5,0-2.7-0.4-3.3-0.8c-0.2-0.1-0.4-0.3-0.5-0.4l-0.3-0.3l0.3-0.3
		c0.5-0.5,2.1-1.2,3.9-1.2c1.5,0,2.7,0.4,3.4,0.8c0.2,0.1,0.4,0.3,0.6,0.4L78.7,27.9z M112.5,50l0.7,0l0.1,0.3l1.2,11.5l-0.2,0.1
		c-0.1,0.1-0.7,0.3-1.4,0.3c-0.7,0-1.3-0.2-1.4-0.3l-0.2-0.1L112.5,50z"/>
</g>
</svg>
