<?xml version="1.0" encoding="utf-8"?>
<!-- Generator: Adobe Illustrator 25.4.1, SVG Export Plug-In . SVG Version: 6.00 Build 0)  -->
<svg version="1.1" id="Layer_1" xmlns="http://www.w3.org/2000/svg" xmlns:xlink="http://www.w3.org/1999/xlink" x="0px" y="0px"
	 viewBox="0 0 150 150" style="enable-background:new 0 0 150 150;" xml:space="preserve">
<style type="text/css">
	.st0{fill:#008A8A;}
</style>
<g>
	<path class="st0" d="M66.1,94.8l4.5-3.6c-6.2-7-15.4-11.9-25.9-14.7c13.8-7.2,23.2,0.3,32.3,7.5c0.8,0.6,0.9,0.8,1.6,1.4l4.7-3.4
		c-0.6-0.8-1.9-2-2.7-2.6c-10.2-8.1-24.2-19.2-44.3-4.6c-4.3-0.6-8.8-0.9-13.3-0.8v-9.6c5.3,0.5,9.3-0.6,11.8-3.2
		c3-3.1,3-7.4,2.7-9.7c-0.8-2.5-2.3-3.6-3.2-4.4c-0.6-0.4-1-0.8-1-1.1c-0.5-7.3-5.8-12.6-12.7-12.6c0,0,0,0-0.1,0
		c-6.5,0-11.8,5-12.4,11.5c0,0.5-0.3,1.1-0.7,1.4c-2.1,2-3.2,4.4-3.4,7.1C4,56.3,5,59,6.9,61.1c2,2.1,4.6,3.3,7.5,3.3
		c0.9,0,1.9,0,2.8,0c0.3,0,0.7,0,1,0v9.7C12.6,74.6,6.8,75.5,1.2,77V83C26,76,52.5,80.8,66.1,94.8z M23,59.8c-0.4-1.8,0.2-3,1.8-3.8
		c0.8-0.4,1.5-0.9,2.2-1.4c0.3-0.2,0.7-0.5,1-0.7l0.2-0.2l-2.6-3.8L23,51.7v-4h-4.6v4l-2.8-1.7l-2.5,3.8l0.2,0.2
		c0.4,0.3,0.8,0.5,1.2,0.8c0.9,0.6,1.7,1.2,2.6,1.7c1.1,0.6,1.5,1.3,1.3,2.4c0,0.2,0,0.5,0,0.8c0,0.1,0,0.2,0,0.3
		c-0.5,0-1.1-0.1-1.6-0.1c-1.5-0.1-2.8-0.1-4.1-0.5c-2.1-0.5-3.4-2.2-3.8-4.6c-0.3-2.2,0.5-4.1,2.2-5.3c1.4-0.9,1.9-2,1.8-3.8
		c-0.1-1.9,0.7-3.8,2.2-5.3c1.5-1.5,3.6-2.4,5.8-2.4c2.1,0,4.2,0.9,5.6,2.5c1.4,1.5,2.1,3.4,2,5.4c-0.1,1.6,0.4,2.6,1.7,3.5
		c2,1.4,2.9,3.9,2.1,6.3c-0.7,2.4-2.9,4-5.4,4.1c-0.9,0-1.8,0-2.8,0C23.7,59.8,23.4,59.8,23,59.8C23,59.8,23,59.8,23,59.8z"/>
	<path class="st0" d="M124.8,60.6c9.1,0.9,15.9-1.2,20.1-5.5c4.9-5,5.2-12.3,4.4-15.8c-0.7-3.5-3.5-5.7-5.2-7.1
		c-1.2-0.9-2.1-1.7-2.1-2.7c-0.8-12-9.5-20.7-20.8-20.7c0,0-0.1,0-0.1,0c-10.6,0.1-19.4,8.2-20.4,18.9c-0.1,1.1-0.7,2.3-1.5,3.1
		c-3.5,3.4-5.2,7.2-5.5,11.6c-0.2,4.6,1.3,9.1,4.5,12.4c3.2,3.4,7.5,5.3,12.3,5.4c1.6,0,3.3,0,4.9,0c0.7,0,1.5,0,2.2,0h0.6v20.6
		c-3.9-0.5-8.1-0.9-12.6-0.9c-14.6,0-27.3,10.2-39.7,20c-9.5,7.6-18.5,14.7-26.8,15.7c-17.1,2-34.5-7-37.8-8.8v6.6
		c6,3,18.8,8.4,32.6,8.4c1.9,0,3.9-0.1,5.8-0.3c9.9-1.2,19.6-8.8,29.7-17c11.6-9.2,23.5-18.7,36-18.7c22.1,0,36.8,8.5,38.6,9.6v-6.7
		c-3.8-1.9-10.7-4.9-19.9-6.9V60.5L124.8,60.6z M124.1,53.1c0-0.1,0-0.2,0-0.2c0.1-3.6,0.6-4.8,3.6-7c1.1-0.8,2.2-1.5,3.2-2.2
		c0.6-0.4,1.1-0.7,1.7-1.1l-3.2-4.8l-5.4,3.5v-7.8h-5.9v7.7l-5.6-3.5l-3.2,4.8c0.5,0.4,1,0.7,1.6,1.1c1.5,1,2.9,2,4.4,2.9
		c2.3,1.3,2.7,2.7,2.8,5.2c0,0.3,0,0.6,0,0.9c0,0.3,0,0.6,0,1.2v0.6l-0.6,0c-0.7,0-1.5,0-2.2,0c-2.9,0-5.8,0-8.5-0.8
		c-4-1-6.6-4.2-7.3-8.8c-0.6-4.3,0.9-7.9,4.3-10.2c2.1-1.4,2.8-2.9,2.7-5.7c-0.1-3.6,1.3-7.2,4-9.9c2.8-2.9,6.7-4.5,10.7-4.4
		c3.9,0.1,7.8,1.8,10.5,4.7c2.6,2.8,4,6.4,3.8,10.1c-0.1,2.4,0.6,3.8,2.5,5.1c3.9,2.6,5.5,7.5,4.1,12.1c-1.4,4.6-5.6,7.7-10.4,7.8
		c-0.9,0-1.8,0-2.7,0c-0.7,0-1.5,0-2.2,0c-0.7,0-1.5,0-2.2,0h-0.6v-0.6C124.1,53.6,124.1,53.3,124.1,53.1z"/>
	<path class="st0" d="M66.2,122.2c-9.5,7.6-18.5,14.7-26.8,15.7c-18.5,2.2-37.5-8.7-38.3-9.1v6.7c5.7,2.9,18.9,8.6,33.1,8.6
		c1.9,0,3.9-0.1,5.8-0.3c9.9-1.2,19.6-8.8,29.7-17c11.6-9.2,23.5-18.7,36-18.7c20.7,0,34.9,7.5,38.1,9.3v-6.7
		c-6.3-3.1-19.7-8.5-38.1-8.5C91.4,102.2,78.6,112.4,66.2,122.2z"/>
</g>
</svg>
