<?xml version="1.0" encoding="utf-8"?>
<!-- Generator: Adobe Illustrator 24.1.2, SVG Export Plug-In . SVG Version: 6.00 Build 0)  -->
<svg version="1.1" id="Layer_1" xmlns="http://www.w3.org/2000/svg" xmlns:xlink="http://www.w3.org/1999/xlink" x="0px" y="0px"
	 viewBox="0 0 79.4 79.4" style="enable-background:new 0 0 79.4 79.4;" xml:space="preserve">
<style type="text/css">
	.st0{fill:#018B8B;}
</style>
<path class="st0" d="M18,8.8C18.6,7,18.4,5.3,19.1,4c0.3-0.6,2.1-0.8,3-0.8c1.5-0.1,3.3-0.4,4.2,1.2c0.6,1.3,0.6,2.8,0.9,4.4h25.2
	c0.5-1.7-0.6-3.8,1.2-4.9c1.1-0.6,2.5-0.6,3.8-0.8c1.5-0.2,2.8,0.2,3.3,1.7C61,6,60.9,7.4,61.1,8.9c2.6,0,5.2,0,7.8,0
	c2.5,0,3.4,0.9,3.4,3.4c0,12.5,0,25.1,0,37.6c0,0.9,0.3,1.8,0.7,2.5c3.4,5.7,2.6,12.8-2,17.5c-4.7,4.6-11.8,5.4-17.3,2
	c-0.8-0.5-1.8-0.8-2.6-0.8c-13.4,0-26.7,0-40.2,0c-2.8,0-3.7-0.9-3.7-3.7c0-18.3,0-36.6,0-54.8c0-2.9,0.9-3.8,3.7-3.8
	C13.3,8.8,15.7,8.8,18,8.8z M10,68.1h39.2c0-0.2,0.1-0.3,0-0.4c-1.8-2.9-2.8-6.1-2.4-9.6c0-0.3-0.2-0.8-0.5-1
	c-2.4-1.7-5-3.2-7.4-4.8l-9.1,5.8c0.9-3.4,1.7-6.4,2.5-9.3c0.2-0.9,0.1-1.4-0.6-1.8c-1.5-1.2-2.9-2.3-4.3-3.5
	c-1-0.8-1.9-1.7-3.1-2.6c3.3-0.2,6.3-0.4,9.2-0.5c1.2,0,1.8-0.5,2.1-1.6c1-2.8,2.1-5.6,3.3-8.7c1,2.5,2,4.7,2.6,6.9
	c0.7,2.7,2.2,3.7,4.9,3.5c2.2-0.1,4.6,0.2,7.3,0.4C51,43,48.6,45,46.4,46.8c-0.4,0.3-1,1-0.9,1.3c0.5,2.3,1.2,4.6,1.8,7.4
	c1.8-4.8,4.9-7.8,9.3-9.2c4.5-1.5,8.7-0.5,12.6,2V24.5H10.1L10,68.1L10,68.1z M10,21.4h59.4v-9.6H61c-0.1,1.4,0,2.5-0.3,3.7
	c-0.4,1.4-1.7,1.9-3,1.8c-1.4-0.1-3.3,0.1-4-0.8c-1-1.2-1.1-3.1-1.7-4.8H26.9c-0.1,1.3,0,2.5-0.3,3.7c-0.4,1.4-1.7,1.9-3,1.8
	c-1.4-0.1-2.9,0-4.1-0.7c-1.8-1-0.7-3.2-1.2-4.8H10V21.4z M49.6,59.8c0,6.2,5.1,11.3,11.4,11.3S72.3,66,72.3,59.7
	c0-6.2-5.1-11.3-11.4-11.3C54.5,48.4,49.6,53.5,49.6,59.8z M39,37.9c-0.6,1.4-1.1,2.5-1.5,3.8c-0.3,1.2-1,1.5-2,1.5
	c-1.2,0-2.3,0-3.5,0c1,1.3,2.1,2.1,3.1,3c0.4,0.4,0.6,1.1,0.5,1.6c-0.2,1.4-0.7,2.7-1.1,4.3c1.3-0.9,2.4-1.5,3.4-2.2
	c0.8-0.6,1.4-0.7,2.2,0c1,0.8,2.1,1.4,3.5,2.2c-0.4-1.6-0.6-2.7-1-3.9c-0.4-1.1-0.1-1.7,0.8-2.2c1-0.7,1.8-1.6,2.8-2.3
	c-0.1-0.1-0.1-0.3-0.2-0.4c-1.1,0-2.2,0-3.3,0c-1.2,0.1-1.9-0.3-2.2-1.6C40,40.3,39.5,39.3,39,37.9z M21.3,14.4h2.8V6h-2.8V14.4z
	 M55.4,6v8.4H58V6H55.4z"/>
<path class="st0" d="M53.2,60.8l1.8-1.6l4.3,3.4c3.1-3.8,6.9-7,11-9.6c0.1,0.2,0.2,0.5,0.3,0.7c0.1,0.1,0.2,0.3,0.1,0.4
	c-0.1,0.1-0.2,0.2-0.3,0.3c-1.9,1.8-3.7,3.9-5.3,6c-1.3,1.8-2.4,3.6-3.5,5.5c-0.4,0.8-0.8,1.7-1.2,2.4v0.1L53.2,60.8z"/>
</svg>
